<svg width="64" height="64" viewBox="0 0 64 64" fill="none" xmlns="http://www.w3.org/2000/svg">
<path d="M57.3121 13.194L44.8621 14.694C44.4496 14.744 44.2746 15.2503 44.5683 15.544L48.2746 19.2503L34.1496 33.3753L27.7871 27.019C27.3933 26.6253 26.7621 26.6315 26.3746 27.019L6.2683 47.1315C6.17525 47.2255 6.12305 47.3524 6.12305 47.4847C6.12305 47.6169 6.17525 47.7438 6.2683 47.8378L9.0808 50.6628C9.27455 50.8565 9.5933 50.8565 9.78705 50.6628L27.0808 33.3753L33.4371 39.7316C33.8308 40.1191 34.4621 40.1191 34.8496 39.7316L51.8121 22.7815L55.5183 26.4878C55.5847 26.5539 55.6684 26.6 55.7597 26.6209C55.851 26.6418 55.9464 26.6367 56.0349 26.6061C56.1235 26.5755 56.2017 26.5207 56.2606 26.4478C56.3196 26.375 56.3569 26.287 56.3683 26.194L57.8683 13.744C57.9121 13.4253 57.6371 13.1503 57.3121 13.194Z" fill="white"/>
</svg>
