<svg width="24" height="24" viewBox="0 0 24 24" fill="none" xmlns="http://www.w3.org/2000/svg">
<path fill-rule="evenodd" clip-rule="evenodd" d="M22.3642 17.7074C22.0382 18.5134 21.2722 18.8904 20.8362 19.0674C20.5001 19.2017 20.1541 19.3097 19.8012 19.3904L19.7782 19.4784C19.6872 19.8637 19.4696 20.2074 19.1602 20.4544C18.8366 20.7122 18.4317 20.8462 18.0182 20.8324H18.0032L17.9722 20.8314C17.7526 20.8223 17.5343 20.7925 17.3202 20.7424C17.0972 20.6933 16.8696 20.6681 16.6412 20.6674C16.5119 20.6674 16.3809 20.6774 16.2482 20.6974C15.9852 20.7787 15.7429 20.9162 15.5382 21.1004C14.6169 21.9418 13.4314 22.4361 12.1852 22.4984L12.1502 22.5004H12.1142L11.9862 22.4984L11.8842 22.5004H11.8502L11.8172 22.4984C10.5708 22.4363 9.38483 21.942 8.46325 21.1004C8.25878 20.9167 8.01688 20.7796 7.75425 20.6984C7.62425 20.6784 7.49425 20.6684 7.36425 20.6684C7.13958 20.6711 6.91725 20.6978 6.69725 20.7484C6.49725 20.7971 6.29391 20.8284 6.08725 20.8424C5.6542 20.8794 5.22287 20.7539 4.87725 20.4904C4.55015 20.2419 4.31909 19.8879 4.22325 19.4884L4.20025 19.3904C3.84744 19.31 3.50141 19.2023 3.16525 19.0684C2.72925 18.8894 1.96525 18.5124 1.64025 17.7104C1.5623 17.5182 1.51636 17.3145 1.50425 17.1074V17.0954C1.48332 16.6881 1.60614 16.2864 1.85125 15.9604C2.10025 15.6304 2.47025 15.3884 2.90325 15.3074C3.66658 15.1512 4.34494 14.7176 4.80725 14.0904L4.82325 14.0694L4.83925 14.0494C5.05725 13.7808 5.24825 13.4904 5.41225 13.1784C5.30565 13.1438 5.20056 13.1048 5.09725 13.0614C4.75749 12.9213 4.43985 12.7327 4.15425 12.5014C3.84925 12.2454 3.20825 11.5754 3.38925 10.5624L3.41225 10.4364L3.45625 10.3164C3.61622 9.87334 3.90839 9.49007 4.29325 9.21842C4.68455 8.94198 5.1554 8.80083 5.63425 8.81642C5.60725 7.74942 5.72425 6.68142 5.98425 5.64642L6.01025 5.54142L6.05125 5.44142C6.52318 4.28045 7.3231 3.28211 8.35325 2.56842C9.37126 1.86391 10.5823 1.49156 11.8202 1.50242L12.1642 1.49942C13.4072 1.48516 14.6239 1.8573 15.6462 2.56442C16.6775 3.27796 17.4787 4.27623 17.9522 5.43742L17.9932 5.53742L18.0202 5.64342C18.2786 6.67619 18.396 7.73917 18.3692 8.80342H18.3772C18.6582 8.80342 18.9342 8.85642 19.1922 8.95442C19.5602 9.07442 19.8822 9.29242 20.1272 9.57642C20.4002 9.89242 20.5702 10.2764 20.6282 10.6774L20.6422 10.7704L20.6432 10.8644C20.6642 11.9944 19.7932 12.6874 18.9032 13.0624L18.8922 13.0674C18.7912 13.1084 18.6888 13.1461 18.5852 13.1804C18.8352 13.6664 19.1652 14.0944 19.5562 14.4444C20.0322 14.8694 20.5862 15.1674 21.1722 15.3224C21.5762 15.4164 21.9202 15.6524 22.1542 15.9654C22.4032 16.2974 22.5192 16.6994 22.4992 17.0974V17.1034C22.4878 17.3104 22.4425 17.5141 22.3652 17.7064M20.9732 17.1444C20.9891 17.1048 20.9986 17.063 21.0012 17.0204C21.0042 16.9645 20.9876 16.9093 20.9542 16.8644C20.9388 16.8423 20.9191 16.8236 20.8962 16.8093C20.8734 16.7951 20.8479 16.7856 20.8212 16.7814C20.7061 16.7518 20.592 16.7181 20.4792 16.6804L20.4752 16.6784C20.1849 16.5822 19.9032 16.4614 19.6332 16.3174C19.2457 16.11 18.8845 15.8568 18.5572 15.5634C17.8935 14.9667 17.3738 14.2271 17.0372 13.4004L17.0322 13.3884C16.9581 13.2593 16.9117 13.1161 16.896 12.968C16.8803 12.8199 16.8957 12.6702 16.9412 12.5284C17.0152 12.3596 17.1378 12.2165 17.2932 12.1174L17.3432 12.0844C17.5752 11.9374 17.8512 11.8444 18.0672 11.7714L18.1072 11.7584L18.1172 11.7554L18.1282 11.7514C18.2016 11.7261 18.2659 11.7024 18.3212 11.6804L18.3472 11.6694L18.3652 11.6614H18.3672C18.48 11.6115 18.5895 11.5548 18.6952 11.4914C19.0622 11.2664 19.1462 11.0484 19.1432 10.8914C19.1261 10.7684 19.074 10.6528 18.9932 10.5584C18.9143 10.4674 18.8098 10.4022 18.6932 10.3714L18.6872 10.3684C18.5526 10.3102 18.4045 10.2901 18.2592 10.3104C18.1999 10.3206 18.1421 10.3384 18.0872 10.3634C18.0038 10.4089 17.9173 10.4483 17.8282 10.4814L17.8182 10.4854C17.7657 10.5057 17.7123 10.5237 17.6582 10.5394L17.6522 10.5404C17.5135 10.5818 17.3707 10.6079 17.2262 10.6184C17.0516 10.6233 16.8815 10.5626 16.7492 10.4484L16.7772 9.93842L16.7812 9.87742C16.9547 8.5857 16.8814 7.2728 16.5652 6.00842C16.2027 5.11641 15.5884 4.34921 14.7972 3.80042C14.0288 3.26835 13.1138 2.98874 12.1792 3.00042L11.8172 3.00242C10.8835 2.99195 9.96958 3.27223 9.20225 3.80442C8.41232 4.35309 7.79935 5.12 7.43825 6.01142C7.12254 7.27382 7.04891 8.5846 7.22125 9.87442C7.23325 10.0658 7.24425 10.2571 7.25425 10.4484C7.1071 10.5703 6.91896 10.6315 6.72825 10.6194C6.5988 10.6139 6.4702 10.5958 6.34425 10.5654L6.33725 10.5644C6.15503 10.5221 5.97966 10.4545 5.81625 10.3634C5.74721 10.3308 5.67161 10.3143 5.59525 10.3154C5.43735 10.3079 5.28156 10.3541 5.15325 10.4464C5.02122 10.541 4.92112 10.6736 4.86625 10.8264C4.82225 11.0744 5.00325 11.2814 5.22925 11.4374L5.28925 11.4774C5.41372 11.557 5.54528 11.625 5.68225 11.6804C5.76583 11.7146 5.85092 11.7449 5.93725 11.7714C6.18936 11.8492 6.43215 11.9545 6.66125 12.0854L6.71525 12.1204C6.86964 12.2181 6.99067 12.3604 7.06225 12.5284C7.1061 12.6708 7.12056 12.8207 7.10474 12.9689C7.08893 13.117 7.04317 13.2605 6.97025 13.3904L6.96725 13.4004C6.72087 13.9734 6.39683 14.5098 6.00425 14.9944C5.56015 15.5861 4.98425 16.0661 4.32225 16.3964C3.96225 16.5744 3.57925 16.7044 3.18225 16.7814C3.15563 16.7856 3.13013 16.7951 3.10727 16.8093C3.08442 16.8236 3.06468 16.8423 3.04925 16.8644C3.01551 16.9092 2.99853 16.9644 3.00125 17.0204C3.00412 17.0634 3.01392 17.1056 3.03025 17.1454C3.09122 17.2764 3.18971 17.3864 3.31325 17.4614C3.51391 17.5994 3.80625 17.7248 4.19025 17.8374C4.30425 17.8708 4.42625 17.9028 4.55625 17.9334C4.78891 17.9888 5.04558 18.0394 5.32625 18.0854C5.45225 18.1054 5.50625 18.3254 5.57925 18.6824C5.60791 18.8324 5.64191 18.9808 5.68125 19.1274C5.69435 19.1942 5.73132 19.2539 5.78525 19.2954C5.83825 19.3354 5.90425 19.3544 5.96825 19.3454C6.09825 19.3388 6.22591 19.3198 6.35125 19.2884C6.68186 19.2115 7.01983 19.1706 7.35925 19.1664C7.60325 19.1664 7.84558 19.1884 8.08625 19.2324C8.59857 19.3716 9.07119 19.6288 9.46625 19.9834C10.1305 20.5941 10.9872 20.9534 11.8882 20.9994C11.9182 20.9994 11.9482 20.9981 11.9782 20.9954C12.0152 20.9984 12.0642 20.9994 12.1152 20.9994C13.0163 20.9534 13.873 20.5941 14.5372 19.9834C14.9323 19.6288 15.4049 19.3716 15.9172 19.2324C16.1572 19.1884 16.3999 19.1664 16.6452 19.1664C16.9852 19.1678 17.3216 19.2054 17.6542 19.2794C17.7802 19.3094 17.9069 19.3267 18.0342 19.3314H18.0562C18.1175 19.3365 18.1783 19.3179 18.2262 19.2794C18.2762 19.2392 18.3103 19.1825 18.3222 19.1194C18.3622 18.9701 18.3962 18.8231 18.4242 18.6784C18.4972 18.3224 18.5512 18.1044 18.6762 18.0834C18.9829 18.0328 19.2602 17.9774 19.5082 17.9174C19.6149 17.8908 19.7162 17.8638 19.8122 17.8364C20.1636 17.7338 20.4386 17.6198 20.6372 17.4944C20.6972 17.4546 20.7549 17.4115 20.8102 17.3654C20.8807 17.3059 20.9365 17.231 20.9732 17.1464V17.1444Z" fill="#D90505"/>
</svg>
