<svg width="64" height="64" viewBox="0 0 64 64" fill="none" xmlns="http://www.w3.org/2000/svg">
<path d="M17.333 32C16.2721 32 15.2547 32.4214 14.5046 33.1716C13.7544 33.9217 13.333 34.9391 13.333 36C13.333 37.0609 13.7544 38.0783 14.5046 38.8284C15.2547 39.5786 16.2721 40 17.333 40C18.3939 40 19.4113 39.5786 20.1614 38.8284C20.9116 38.0783 21.333 37.0609 21.333 36C21.333 34.9391 20.9116 33.9217 20.1614 33.1716C19.4113 32.4214 18.3939 32 17.333 32ZM46.6663 32C45.6055 32 44.5881 32.4214 43.8379 33.1716C43.0878 33.9217 42.6663 34.9391 42.6663 36C42.6663 37.0609 43.0878 38.0783 43.8379 38.8284C44.5881 39.5786 45.6055 40 46.6663 40C47.7272 40 48.7446 39.5786 49.4948 38.8284C50.2449 38.0783 50.6663 37.0609 50.6663 36C50.6663 34.9391 50.2449 33.9217 49.4948 33.1716C48.7446 32.4214 47.7272 32 46.6663 32Z" fill="#D90505"/>
<path d="M55.3866 24.4264L51.7333 13.4931C51.2047 11.8969 50.1851 10.5087 48.8201 9.52691C47.4551 8.54509 45.8147 8.01991 44.1333 8.02643H19.84C18.1595 8.02397 16.521 8.55073 15.1568 9.53198C13.7927 10.5132 12.7721 11.8991 12.24 13.4931L8.58664 24.4264C6.66664 25.2264 5.30664 27.1464 5.30664 29.3331V42.6664C5.30664 44.6398 6.39997 46.3464 7.97331 47.2531V53.3331C7.97331 54.7998 9.17331 55.9998 10.64 55.9998H13.3066C14.7733 55.9998 15.9733 54.7998 15.9733 53.3331V47.9998H47.9733V53.3331C47.9733 54.7998 49.1733 55.9998 50.64 55.9998H53.3066C54.7733 55.9998 55.9733 54.7998 55.9733 53.3331V47.2531C56.7794 46.7877 57.4496 46.1195 57.9174 45.3149C58.3853 44.5102 58.6344 43.5972 58.64 42.6664V29.3331C58.64 27.1198 57.28 25.2264 55.36 24.4264H55.3866ZM19.84 13.3331H44.16C44.719 13.3317 45.2644 13.5059 45.719 13.8313C46.1736 14.1567 46.5144 14.6168 46.6933 15.1464L49.6533 23.9998H14.3733L17.3333 15.1464C17.5122 14.6168 17.853 14.1567 18.3076 13.8313C18.7622 13.5059 19.3076 13.3317 19.8666 13.3331H19.84ZM10.6666 42.6664V29.3331H53.3333V42.6664H10.6666Z" fill="#D90505"/>
</svg>
