<svg width="64" height="64" viewBox="0 0 64 64" fill="none" xmlns="http://www.w3.org/2000/svg">
<path d="M32 31.6111C35.9829 31.6111 39.2297 28.0626 39.2297 23.7448C39.2297 19.4763 36 16.0957 32 16.0957C28.0343 16.0957 24.7703 19.5266 24.7703 23.778C24.7863 28.0797 28.0331 31.6111 32 31.6111ZM12.72 31.978C16.1669 31.978 18.9954 28.8808 18.9954 25.082C18.9954 21.3677 16.2011 18.3711 12.72 18.3711C9.272 18.3711 6.42629 21.4168 6.44343 25.1151C6.46057 28.898 9.272 31.978 12.72 31.978ZM51.2971 31.978C54.728 31.978 57.5566 28.898 57.5566 25.1151C57.5737 21.4168 54.728 18.3711 51.2971 18.3711C47.8 18.3711 45.0046 21.3666 45.0046 25.082C45.0046 28.8808 47.8331 31.978 51.2971 31.978ZM32 29.0831C29.5566 29.0831 27.464 26.7403 27.464 23.778C27.464 20.866 29.5234 18.6237 32.0011 18.6237C34.4937 18.6237 36.536 20.8328 36.536 23.7437C36.536 26.7071 34.4766 29.0831 32 29.0831ZM12.72 29.4854C10.6777 29.4854 8.93714 27.5266 8.93714 25.1163C8.93714 22.7574 10.6606 20.8648 12.72 20.8648C14.8286 20.8648 16.5189 22.7231 16.5189 25.0831C16.5189 27.5266 14.7783 29.4854 12.72 29.4854ZM51.2971 29.4854C49.2217 29.4854 47.4811 27.5266 47.4811 25.0831C47.4811 22.7231 49.1714 20.866 51.2971 20.866C53.3554 20.866 55.0629 22.7574 55.0629 25.1174C55.0629 27.5266 53.3383 29.4854 51.2971 29.4854ZM3.41371 47.3254H16.552C15.7486 46.874 15.1291 45.8694 15.2469 44.8488H2.99543C2.66057 44.8488 2.49371 44.7151 2.49371 44.3974C2.49371 40.2466 7.22971 36.3631 12.7029 36.3631C14.8114 36.3631 16.7029 36.866 18.3257 37.8191C18.8639 37.1366 19.5015 36.5387 20.2171 36.0454C18.0583 34.6226 15.464 33.8866 12.7029 33.8866C5.69029 33.8866 0 38.9746 0 44.5483C0 46.4054 1.13829 47.3254 3.41371 47.3254ZM60.6023 47.3254C62.8617 47.3254 64 46.4054 64 44.5483C64 38.9746 58.3086 33.8866 51.2971 33.8866C48.536 33.8866 45.9577 34.6226 43.7829 36.0466C44.536 36.5643 45.1543 37.1506 45.6914 37.8191C47.2971 36.866 49.2046 36.3631 51.2971 36.3631C56.7703 36.3631 61.5063 40.2466 61.5063 44.3974C61.5063 44.7151 61.3554 44.8488 61.0206 44.8488H48.7691C48.8697 45.8694 48.2674 46.874 47.464 47.3254H60.6023ZM21.4891 47.3254H42.5109C45.288 47.3254 46.6114 46.4888 46.6114 44.6477C46.6114 40.2626 41.0709 33.9197 32 33.9197C22.912 33.9197 17.3714 40.2626 17.3714 44.6477C17.3714 46.4888 18.6949 47.3254 21.4891 47.3254ZM20.6857 44.7997C20.2514 44.7997 20.0674 44.682 20.0674 44.3311C20.0674 41.5848 24.3189 36.4477 32 36.4477C39.6651 36.4477 43.9166 41.5848 43.9166 44.33C43.9166 44.682 43.7486 44.7986 43.3143 44.7986L20.6857 44.7997Z" fill="white"/>
</svg>
