<svg width="24" height="24" viewBox="0 0 24 24" fill="none" xmlns="http://www.w3.org/2000/svg">
<path d="M12.9999 21.0004H20.9999M21.1739 6.81238C21.4357 6.55066 21.6434 6.23993 21.7851 5.89795C21.9268 5.55596 21.9998 5.18942 21.9998 4.81923C21.9999 4.44905 21.927 4.08249 21.7854 3.74047C21.6438 3.39845 21.4362 3.08767 21.1744 2.82588C20.9127 2.56409 20.602 2.35641 20.26 2.21471C19.918 2.07301 19.5515 2.00005 19.1813 2C18.8111 1.99995 18.4445 2.07282 18.1025 2.21444C17.7605 2.35606 17.4497 2.56366 17.1879 2.82538L3.84193 16.1744C3.60975 16.4059 3.43805 16.6909 3.34193 17.0044L2.02093 21.3564C1.99509 21.4429 1.99314 21.5347 2.01529 21.6222C2.03743 21.7097 2.08285 21.7896 2.14673 21.8534C2.21061 21.9172 2.29055 21.9624 2.37809 21.9845C2.46563 22.0065 2.55749 22.0044 2.64393 21.9784L6.99693 20.6584C7.3101 20.5631 7.59511 20.3925 7.82693 20.1614L21.1739 6.81238Z" stroke="#D90505" stroke-width="2" stroke-linecap="round" stroke-linejoin="round"/>
</svg>
