<svg width="32" height="32" viewBox="0 0 32 32" fill="none" xmlns="http://www.w3.org/2000/svg">
<path d="M17.0364 6.51871L22.9164 12.3827M5.05371 28.3334H26.947M5.52571 22.3134L6.18304 17.7467C6.21841 17.4484 6.35654 17.1716 6.57371 16.964L19.4604 4.07871C19.626 3.9098 19.8325 3.78656 20.0598 3.72091C20.2871 3.65527 20.5275 3.64946 20.7577 3.70404C21.9466 4.01967 23.0277 4.6519 23.8857 5.53338C24.773 6.38946 25.4109 7.47069 25.731 8.66138C25.7804 8.89185 25.7719 9.13097 25.7063 9.35736C25.6407 9.58375 25.52 9.79035 25.355 9.95871L12.4697 22.844C12.2475 23.0492 11.9705 23.1854 11.6724 23.236L7.08971 23.892C6.87625 23.9209 6.659 23.8998 6.45508 23.8304C6.25115 23.761 6.06611 23.6453 5.91451 23.4923C5.76291 23.3392 5.64889 23.1531 5.58142 22.9486C5.51396 22.744 5.49489 22.5266 5.52571 22.3134Z" stroke="#D90505" stroke-width="1.5" stroke-linecap="round" stroke-linejoin="round"/>
</svg>
