<svg width="24" height="24" viewBox="0 0 24 24" fill="none" xmlns="http://www.w3.org/2000/svg">
<path fill-rule="evenodd" clip-rule="evenodd" d="M11.298 2.19518C11.6926 2.04753 12.1238 2.02828 12.53 2.14018L12.702 2.19518L19.702 4.82018C20.0569 4.95327 20.3667 5.18448 20.5953 5.48688C20.8239 5.78928 20.9618 6.1504 20.993 6.52818L21 6.69318V12.0562C21 13.6766 20.5624 15.267 19.7336 16.6594C18.9048 18.0518 17.7154 19.1946 16.291 19.9672L16.025 20.1062L12.671 21.7832C12.4863 21.8754 12.2846 21.9285 12.0785 21.9392C11.8723 21.9498 11.6662 21.9178 11.473 21.8452L11.329 21.7832L7.975 20.1062C6.52561 19.3815 5.29878 18.2789 4.424 16.9148C3.54923 15.5507 3.05898 13.9758 3.005 12.3562L3 12.0562V6.69318C3.00001 6.31431 3.10763 5.94323 3.31033 5.62315C3.51304 5.30307 3.8025 5.04715 4.145 4.88518L4.298 4.82018L11.298 2.19518ZM12 4.06818L5 6.69318V12.0562C5.00003 13.3112 5.33745 14.5431 5.97696 15.623C6.61646 16.7028 7.53451 17.5909 8.635 18.1942L8.87 18.3172L12 19.8822L15.13 18.3172C16.2527 17.7559 17.2039 16.9031 17.8839 15.848C18.5638 14.793 18.9476 13.5745 18.995 12.3202L19 12.0562V6.69318L12 4.06818ZM11.508 7.51618C11.7788 7.41483 12.0743 7.39981 12.354 7.47318L12.492 7.51618L15.292 8.56618C15.5376 8.65831 15.7524 8.81759 15.9119 9.02587C16.0714 9.23414 16.1691 9.48304 16.194 9.74418L16.2 9.87718V12.0222C16.2 12.7655 16.0027 13.4955 15.6283 14.1376C15.254 14.7797 14.7159 15.311 14.069 15.6772L13.879 15.7792L12.537 16.4492C12.3916 16.522 12.233 16.5645 12.0707 16.5741C11.9085 16.5837 11.7459 16.5603 11.593 16.5052L11.463 16.4502L10.122 15.7792C9.45728 15.4468 8.89266 14.944 8.48577 14.3221C8.07889 13.7001 7.84432 12.9814 7.806 12.2392L7.8 12.0222V9.87718C7.80003 9.61492 7.87373 9.35794 8.0127 9.13553C8.15166 8.91311 8.35031 8.7342 8.586 8.61918L8.708 8.56618L11.508 7.51618ZM12 9.46818L9.8 10.2932V12.0232C9.80011 12.4034 9.89873 12.777 10.0863 13.1077C10.2738 13.4384 10.5438 13.7149 10.87 13.9102L11.016 13.9902L12 14.4822L12.984 13.9902C13.3243 13.8201 13.6146 13.5646 13.8267 13.2488C14.0388 12.933 14.1653 12.5675 14.194 12.1882L14.2 12.0222V10.2932L12 9.46818Z" fill="#D90505"/>
</svg>
