<svg width="32" height="32" viewBox="0 0 32 32" fill="none" xmlns="http://www.w3.org/2000/svg">
<path d="M8.94166 23.0057C9.04699 24.1377 9.92966 24.9883 11.063 25.0743C12.679 25.1963 15.3783 25.3337 19.3337 25.3337C23.289 25.3337 25.9883 25.1963 27.6043 25.0737C28.7377 24.9883 29.6203 24.1377 29.7257 23.0057C29.859 21.5717 30.0003 19.2797 30.0003 16.0003C30.0003 12.7203 29.859 10.429 29.7257 8.99499C29.6203 7.86299 28.7377 7.01233 27.6043 6.92633C25.9883 6.80433 23.2897 6.66699 19.3337 6.66699C15.3777 6.66699 12.679 6.80433 11.0637 6.92699C9.93033 7.01233 9.04699 7.86299 8.94166 8.99499C8.80833 10.429 8.66699 12.7203 8.66699 16.0003C8.66699 19.2803 8.80833 21.5717 8.94166 23.0057Z" stroke="#D90505" stroke-width="1.5" stroke-linejoin="round"/>
<path d="M8.66667 14.6673C8.66667 14.6673 16.4107 18.6673 19.3333 18.6673C22.2553 18.6673 30 14.6673 30 14.6673M2 11.334H5.33333M2.66667 16.0007H5.33333M3.33333 20.6673H5.33333" stroke="#D90505" stroke-width="1.5" stroke-linecap="round" stroke-linejoin="round"/>
</svg>
